<?xml version="1.0" encoding="UTF-8" standalone="no"?>
<!DOCTYPE svg PUBLIC "-//W3C//DTD SVG 1.1//EN" "http://www.w3.org/Graphics/SVG/1.1/DTD/svg11.dtd">
<!-- Created with Vectornator (http://vectornator.io/) -->
<svg height="100%" stroke-miterlimit="10" style="fill-rule:nonzero;clip-rule:evenodd;stroke-linecap:round;stroke-linejoin:round;" version="1.1" viewBox="0 0 283 64" width="100%" xml:space="preserve" xmlns="http://www.w3.org/2000/svg" xmlns:vectornator="http://vectornator.io" xmlns:xlink="http://www.w3.org/1999/xlink">
<defs>
<clipPath id="TextBounds">
<rect height="59" width="233.461" x="24.7696" y="2.5"/>
</clipPath>
</defs>
<g id="Untitled" vectornator:layerName="Untitled">
<g fill="#000000" opacity="1" stroke="none">
<path clip-path="url(#TextBounds)" d="M44.9896 28.524C44.9896 27.66 44.7976 26.916 44.4136 26.292C44.0296 25.668 43.5576 25.212 42.9976 24.924C42.4376 24.636 41.8776 24.412 41.3176 24.252C40.7576 24.092 40.2856 24.012 39.9016 24.012L39.3256 23.964L33.5656 23.964L33.5656 32.748L39.3256 32.748C39.4856 32.748 39.6936 32.74 39.9496 32.724C40.2056 32.708 40.6536 32.62 41.2936 32.46C41.9336 32.3 42.5016 32.092 42.9976 31.836C43.4936 31.58 43.9496 31.164 44.3656 30.588C44.7816 30.012 44.9896 29.324 44.9896 28.524ZM52.3336 28.092C52.3336 32.124 50.5576 34.86 47.0056 36.3C48.7976 36.908 50.1816 37.884 51.1576 39.228C52.1336 40.572 52.6696 41.756 52.7656 42.78L52.8616 44.316C52.8616 46.012 52.5976 47.524 52.0696 48.852C51.5416 50.18 50.8216 51.228 49.9096 51.996C48.9976 52.764 48.0616 53.404 47.1016 53.916C46.1416 54.428 45.0936 54.788 43.9576 54.996C42.8216 55.204 41.9256 55.34 41.2696 55.404C40.6136 55.468 39.9656 55.5 39.3256 55.5L33.6136 55.5L33.6136 48.492L39.3256 48.492C40.9256 48.492 42.3576 48.172 43.6216 47.532C44.8856 46.892 45.5176 45.756 45.5176 44.124C45.5176 43.292 45.3016 42.572 44.8696 41.964C44.4376 41.356 43.9176 40.924 43.3096 40.668C42.7016 40.412 42.1016 40.22 41.5096 40.092C40.9176 39.964 40.4136 39.9 39.9976 39.9L39.3256 39.9L33.5656 39.9L26.2696 39.9L26.2696 17.532C26.2696 17.244 26.4456 17.1 26.7976 17.1L39.3256 17.1C39.5176 17.1 39.7656 17.1 40.0696 17.1C40.3736 17.1 40.9736 17.164 41.8696 17.292C42.7656 17.42 43.6296 17.604 44.4616 17.844C45.2936 18.084 46.2056 18.476 47.1976 19.02C48.1896 19.564 49.0456 20.212 49.7656 20.964C50.4856 21.716 51.0936 22.708 51.5896 23.94C52.0856 25.172 52.3336 26.556 52.3336 28.092Z"/>
<path clip-path="url(#TextBounds)" d="M84.3496 54.924C84.4136 55.052 84.3976 55.18 84.3016 55.308C84.2056 55.436 84.0776 55.5 83.9176 55.5L77.2936 55.5C77.0696 55.5 76.9256 55.404 76.8616 55.212L69.2776 33.804L61.7896 55.212C61.7256 55.404 61.5656 55.5 61.3096 55.5L54.7336 55.5C54.5096 55.5 54.3576 55.444 54.2776 55.332C54.1976 55.22 54.1896 55.084 54.2536 54.924L68.7976 17.388C68.8616 17.196 69.0216 17.1 69.2776 17.1C69.5336 17.1 69.6936 17.196 69.7576 17.388L84.3496 54.924Z"/>
<path clip-path="url(#TextBounds)" d="M106.622 48.348C106.974 48.348 107.15 48.508 107.15 48.828L107.15 55.068C107.15 55.356 106.974 55.5 106.622 55.5L86.4136 55.5C86.0616 55.5 85.8856 55.356 85.8856 55.068L85.8856 48.348L93.2296 48.348L106.622 48.348ZM93.2296 41.004L85.8856 41.004L85.8856 17.532C85.8856 17.244 86.0616 17.1 86.4136 17.1L92.7496 17.1C93.0696 17.1 93.2296 17.244 93.2296 17.532L93.2296 41.004Z"/>
<path clip-path="url(#TextBounds)" d="M138.398 54.924C138.462 55.052 138.446 55.18 138.35 55.308C138.254 55.436 138.126 55.5 137.966 55.5L131.342 55.5C131.118 55.5 130.974 55.404 130.91 55.212L123.326 33.804L115.838 55.212C115.774 55.404 115.614 55.5 115.358 55.5L108.782 55.5C108.558 55.5 108.406 55.444 108.326 55.332C108.246 55.22 108.238 55.084 108.302 54.924L122.846 17.388C122.91 17.196 123.07 17.1 123.326 17.1C123.582 17.1 123.742 17.196 123.806 17.388L138.398 54.924Z"/>
<path clip-path="url(#TextBounds)" d="M157.55 34.188C159.534 35.116 161.07 36.468 162.158 38.244C163.246 40.02 163.79 42.044 163.79 44.316C163.79 47.74 162.622 50.46 160.286 52.476C157.95 54.492 155.15 55.5 151.886 55.5L151.838 55.5L151.838 48.588L151.886 48.588C153.198 48.588 154.326 48.188 155.27 47.388C156.214 46.588 156.686 45.564 156.686 44.316C156.686 43.004 156.182 41.916 155.174 41.052C154.166 40.188 153.07 39.724 151.886 39.66C149.934 39.66 148.03 39.228 146.174 38.364C142.014 36.444 139.934 33.212 139.934 28.668C139.934 25.212 141.118 22.42 143.486 20.292C145.854 18.164 148.654 17.1 151.886 17.1C155.214 17.1 157.998 18.116 160.238 20.148C162.478 22.18 163.614 24.812 163.646 28.044C163.678 28.108 163.638 28.188 163.526 28.284C163.414 28.38 163.278 28.428 163.118 28.428L157.118 28.428C156.766 28.428 156.59 28.3 156.59 28.044C156.558 26.732 156.094 25.732 155.198 25.044C154.302 24.356 153.198 24.012 151.886 24.012C150.51 24.012 149.366 24.42 148.454 25.236C147.542 26.052 147.086 27.196 147.086 28.668C147.086 29.98 147.558 31.012 148.502 31.764C149.446 32.516 150.574 32.892 151.886 32.892C153.838 32.892 155.726 33.324 157.55 34.188Z"/>
<path clip-path="url(#TextBounds)" d="M187.07 36.396C187.07 37.388 186.718 38.236 186.014 38.94C185.31 39.644 184.462 39.996 183.47 39.996C182.478 39.996 181.63 39.644 180.926 38.94C180.222 38.236 179.87 37.388 179.87 36.396C179.87 35.372 180.222 34.508 180.926 33.804C181.63 33.1 182.478 32.748 183.47 32.748C184.462 32.748 185.31 33.1 186.014 33.804C186.718 34.508 187.07 35.372 187.07 36.396ZM201.95 36.252C201.95 38.716 201.558 41.076 200.774 43.332C199.99 45.588 198.854 47.628 197.366 49.452C195.878 51.276 193.934 52.74 191.534 53.844C189.134 54.948 186.462 55.5 183.518 55.5C180.51 55.5 177.806 54.956 175.406 53.868C173.006 52.78 171.062 51.316 169.574 49.476C168.086 47.636 166.95 45.588 166.166 43.332C165.382 41.076 164.99 38.716 164.99 36.252C164.99 33.82 165.382 31.476 166.166 29.22C166.95 26.964 168.086 24.924 169.574 23.1C171.062 21.276 173.006 19.82 175.406 18.732C177.806 17.644 180.51 17.1 183.518 17.1C186.462 17.1 189.134 17.644 191.534 18.732C193.934 19.82 195.878 21.276 197.366 23.1C198.854 24.924 199.99 26.964 200.774 29.22C201.558 31.476 201.95 33.82 201.95 36.252ZM194.75 36.396C194.75 33.004 193.758 30.068 191.774 27.588C189.79 25.108 187.038 23.868 183.518 23.868C179.966 23.868 177.198 25.108 175.214 27.588C173.23 30.068 172.238 33.004 172.238 36.396C172.238 39.756 173.23 42.66 175.214 45.108C177.198 47.556 179.966 48.78 183.518 48.78C187.038 48.78 189.79 47.556 191.774 45.108C193.758 42.66 194.75 39.756 194.75 36.396Z"/>
<path clip-path="url(#TextBounds)" d="M224.51 48.348C224.862 48.348 225.038 48.508 225.038 48.828L225.038 55.068C225.038 55.356 224.862 55.5 224.51 55.5L204.302 55.5C203.95 55.5 203.774 55.356 203.774 55.068L203.774 48.348L211.118 48.348L224.51 48.348ZM211.118 41.004L203.774 41.004L203.774 17.532C203.774 17.244 203.95 17.1 204.302 17.1L210.638 17.1C210.958 17.1 211.118 17.244 211.118 17.532L211.118 41.004Z"/>
<path clip-path="url(#TextBounds)" d="M254.462 17.1C254.782 17.1 254.942 17.244 254.942 17.532L254.942 42.684C254.942 46.652 253.59 49.78 250.886 52.068C248.182 54.356 244.734 55.5 240.542 55.5C236.478 55.5 233.062 54.332 230.294 51.996C227.526 49.66 226.142 46.556 226.142 42.684L226.142 24.06L233.39 24.06L233.39 42.636C233.582 44.46 234.358 45.884 235.718 46.908C237.078 47.932 238.686 48.444 240.542 48.444C242.494 48.444 244.174 47.94 245.582 46.932C246.99 45.924 247.694 44.508 247.694 42.684L247.694 17.532C247.694 17.244 247.87 17.1 248.222 17.1L254.462 17.1Z"/>
</g>
</g>
</svg>
